<svg height="48pt" viewBox="0 0 48 48" width="48pt" xmlns="http://www.w3.org/2000/svg" xmlns:xlink="http://www.w3.org/1999/xlink"><linearGradient id="a" gradientTransform="matrix(9.675 0 0 23.937 2.5 16.188)" gradientUnits="userSpaceOnUse" x1="1.013889" x2=".095133" y1=".230934" y2=".967908"><stop offset="0" stop-color="#5433ff"/><stop offset=".51739130435" stop-color="#20bdff"/><stop offset=".98260869565" stop-color="#a5fecb"/></linearGradient><linearGradient id="b" gradientTransform="matrix(9.675 0 0 23.937 35.825 16.188)" gradientUnits="userSpaceOnUse" x1=".183361" x2=".902744" y1=".249178" y2=".903477"><stop offset=".02608695652" stop-color="#b3ffab"/><stop offset=".98695652174" stop-color="#12fff7"/></linearGradient><linearGradient id="c" gradientTransform="matrix(9.675 0 0 15.64 35.825 7.875)" gradientUnits="userSpaceOnUse" x1=".236111" x2="1.016975" y1=".601406" y2=".07446"><stop offset="0" stop-color="#f7f206"/><stop offset=".97826086957" stop-color="#ffbb24"/></linearGradient><linearGradient id="d"><stop offset="0" stop-color="#ff416c"/><stop offset=".84347826087" stop-color="#ff4b2b"/></linearGradient><linearGradient id="e" gradientTransform="matrix(23.65 0 0 21.493 12.175 10.814)" gradientUnits="userSpaceOnUse" x1="0" x2=".907488" xlink:href="#d" y1=".5" y2=".920078"/><linearGradient id="f" gradientTransform="matrix(9.675 0 0 15.64 2.5 7.875)" gradientUnits="userSpaceOnUse" x1=".055556" x2="4.501432" xlink:href="#d" y1=".197605" y2="2.316254"/><path d="m5.402 40.125h6.773v-16.61l-9.675-7.327v21.006c0 1.619 1.299 2.931 2.902 2.931z" fill="url(#a)"/><path d="m35.825 40.125h6.772c1.604 0 2.903-1.312 2.903-2.931v-21.006l-9.675 7.327z" fill="url(#b)"/><path d="m35.825 10.814v12.701l9.675-7.327v-3.908c0-3.623-4.095-5.692-6.966-3.518z" fill="url(#c)"/><path d="m12.175 23.515v-12.701l11.825 8.788 11.825-8.788v12.701l-11.825 8.792z" fill="url(#e)"/><path d="m2.5 12.28v3.908l9.675 7.327v-12.701l-2.709-2.052c-2.871-2.174-6.966-.105-6.966 3.518z" fill="url(#f)"/></svg>