<svg height="48pt" viewBox="0 0 48 48" width="48pt" xmlns="http://www.w3.org/2000/svg" xmlns:xlink="http://www.w3.org/1999/xlink"><linearGradient id="a" gradientTransform="matrix(32.189 0 0 48 7.905 0)" gradientUnits="userSpaceOnUse" x1=".67181" x2=".422149" y1=".02057" y2=".960165"><stop offset="0" stop-color="#1a6cff"/><stop offset="1" stop-color="#c522ff"/></linearGradient><path d="m15.342 14.951-3.175 6.884 4.443 11.158.192-13.158-.218-.723zm2.125-3.138 10.373-6.11-.02.184-.411 3.742-8.576 6.758-1.044-3.496zm13.28 30.053 1.178-2.369 3.822-23.118-.746-.48-5.983-3.791-9.269 7.298.783 1.9zm-3.034.51-8.264-2.795.015-.77.186-12.672zm5.472-31.103-2.606-3.578-.196 1.801zm6.91 2.833-4.399 26.606-3.614 7.288-15.85-5.368-8.327-20.914 5.584-12.108 16.33-9.61z" fill="url(#a)" fill-rule="evenodd"/></svg>